<?xml version="1.0" encoding="UTF-8" standalone="no"?>
<!-- Created with Inkscape (http://www.inkscape.org/) -->

<svg
   xmlns:dc="http://purl.org/dc/elements/1.1/"
   xmlns:cc="http://creativecommons.org/ns#"
   xmlns:rdf="http://www.w3.org/1999/02/22-rdf-syntax-ns#"
   xmlns:svg="http://www.w3.org/2000/svg"
   xmlns="http://www.w3.org/2000/svg"
   xmlns:sodipodi="http://sodipodi.sourceforge.net/DTD/sodipodi-0.dtd"
   xmlns:inkscape="http://www.inkscape.org/namespaces/inkscape"
   width="420.71875"
   height="433.84375"
   id="svg2"
   version="1.1"
   inkscape:version="0.48.3.1 r9886"
   sodipodi:docname="logo.svg"
   inkscape:export-filename="/data/workspace_dev/psOpen/3rdparty/parIO/doc/doxypics/logo.png"
   inkscape:export-xdpi="21.782036"
   inkscape:export-ydpi="21.782036">
  <defs
     id="defs4">
    <inkscape:perspective
       sodipodi:type="inkscape:persp3d"
       inkscape:vp_x="-144.47743 : 628.00841 : 1"
       inkscape:vp_y="0 : 976.47835 : 0"
       inkscape:vp_z="511.51594 : 468.15122 : 1"
       inkscape:persp3d-origin="375.66059 : 4.9110151 : 1"
       id="perspective2985" />
  </defs>
  <sodipodi:namedview
     id="base"
     pagecolor="#ffffff"
     bordercolor="#666666"
     borderopacity="1.0"
     inkscape:pageopacity="0.0"
     inkscape:pageshadow="2"
     inkscape:zoom="0.90509668"
     inkscape:cx="591.96357"
     inkscape:cy="49.790448"
     inkscape:document-units="px"
     inkscape:current-layer="layer1"
     showgrid="true"
     inkscape:snap-global="false"
     inkscape:window-width="1920"
     inkscape:window-height="1145"
     inkscape:window-x="-2"
     inkscape:window-y="-3"
     inkscape:window-maximized="1"
     borderlayer="false"
     fit-margin-top="0"
     fit-margin-left="0"
     fit-margin-right="0"
     fit-margin-bottom="0">
    <inkscape:grid
       type="xygrid"
       id="grid3040"
       empspacing="5"
       visible="true"
       enabled="true"
       snapvisiblegridlinesonly="true"
       originx="-10.4375px"
       originy="-300.39343px" />
  </sodipodi:namedview>
  <metadata
     id="metadata7">
    <rdf:RDF>
      <cc:Work
         rdf:about="">
        <dc:format>image/svg+xml</dc:format>
        <dc:type
           rdf:resource="http://purl.org/dc/dcmitype/StillImage" />
        <dc:title></dc:title>
      </cc:Work>
    </rdf:RDF>
  </metadata>
  <g
     inkscape:label="Layer 1"
     inkscape:groupmode="layer"
     id="layer1"
     transform="translate(-10.4375,-318.125)">
    <path
       inkscape:connector-curvature="0"
       id="path3025"
       style="fill:#cccccc;fill-opacity:1;fill-rule:evenodd;stroke:none"
       d="m 220.43367,556.27302 190.73577,-96.39815 -0.64916,174.87745 -190.6562,96.59473 z"
       sodipodi:nodetypes="ccccc" />
    <path
       inkscape:connector-curvature="0"
       id="path3027"
       style="fill:#353564;fill-opacity:1;fill-rule:evenodd;stroke:none"
       d="m 32.546847,451.20551 0,185.34226 175.464123,94.9453 0,-175.44983 z"
       sodipodi:nodetypes="ccccc" />
    <path
       inkscape:connector-curvature="0"
       id="path3029"
       style="fill:#666666;fill-opacity:1;fill-rule:evenodd;stroke:none"
       d="M 32.825468,437.17809 215.07331,338.14801 409.04839,446.4237 215.08578,544.15421 z"
       sodipodi:nodetypes="ccccc" />
    <path
       sodipodi:type="arc"
       style="fill:#000080;fill-opacity:1;stroke:#000000;stroke-width:4;stroke-linejoin:round;stroke-miterlimit:4;stroke-opacity:1;stroke-dasharray:8, 4;stroke-dashoffset:0"
       id="path3021"
       sodipodi:cx="303.00632"
       sodipodi:cy="358.23743"
       sodipodi:rx="46.12767"
       sodipodi:ry="46.12767"
       d="m 349.13399,358.23743 a 46.12767,46.12767 0 1 1 -92.25534,0 46.12767,46.12767 0 1 1 92.25534,0 z"
       transform="matrix(2.8768593,0,0,2.7027077,-654.59542,-431.55522)" />
    <path
       style="fill:#ffff00;fill-opacity:1;stroke:#000000;stroke-width:3.39867306;stroke-linejoin:round;stroke-miterlimit:4;stroke-opacity:1;stroke-dasharray:6.79734619, 3.39867307;stroke-dashoffset:0"
       d="m 119.88991,683.29949 -86.751074,-46.96795 0,-92.08898 0,-92.08894 15.483714,9.22975 c 26.6531,15.88778 39.948607,23.87291 40.246292,24.17148 0.158124,0.15858 -1.053914,4.00367 -2.692967,8.54504 -3.675294,10.18301 -3.718303,11.2155 -0.494158,11.8622 2.337153,0.46883 2.443672,0.66623 1.779176,3.29732 -0.388774,1.53923 -0.948886,3.87895 -1.244744,5.19937 -0.476747,2.12777 -0.814533,2.33977 -2.971024,1.86472 -1.338234,-0.29495 -2.670114,-0.15161 -2.95973,0.31848 -0.72109,1.17015 -2.117089,20.54381 -1.581221,21.94437 0.237173,0.61952 1.491477,1.12637 2.7877,1.12637 2.219438,0 2.390594,0.27187 2.937919,4.66525 0.674047,5.41076 0.280184,6.39668 -2.556778,6.39668 -1.69721,0 -2.068355,0.42216 -2.056279,2.34002 0.01736,2.44079 1.64864,10.78618 3.354157,17.13872 0.959525,3.57394 1.088581,3.68363 3.811045,3.24056 2.751825,-0.44788 2.859771,-0.34898 4.606333,4.22874 2.11083,5.53221 2.092541,5.38683 0.67799,5.38683 -0.610754,0 -1.752377,0.47863 -2.536968,1.06365 -1.319251,0.98366 -1.263302,1.41562 0.743498,5.74369 1.193538,2.57402 3.745581,7.24245 5.67119,10.37426 l 3.501204,5.69416 2.354395,-1.39488 c 1.29493,-0.76718 2.46557,-1.22354 2.60144,-1.01411 0.13597,0.20955 1.50317,2.00978 3.03853,4.00083 l 2.79157,3.62016 -2.28724,1.97319 -2.28724,1.97319 8.31677,8.6904 8.31677,8.69038 2.19959,-2.0848 2.19962,-2.08478 3.69741,3.21996 3.69746,3.21994 -1.47919,2.26424 c -0.81357,1.24523 -1.33207,2.38442 -1.15218,2.53135 1.5251,1.24597 11.47775,7.58726 15.37842,9.79833 l 4.87035,2.76077 1.02825,-2.3978 c 0.56557,-1.31882 1.07408,-2.4894 1.13003,-2.60121 0.056,-0.11199 2.10622,0.64598 4.55624,1.68408 4.55681,1.93087 4.6164,2.04567 3.38652,6.52018 -0.23458,0.85344 2.45292,2.11874 9.42877,4.4394 11.80059,3.92573 13.57474,4.08578 13.57474,1.2246 0,-2.79191 0.49855,-2.94759 6.07048,-1.89585 4.76881,0.90018 4.79525,0.9219 4.36339,3.59109 -0.40007,2.47172 -0.21633,2.72913 2.30766,3.23538 1.50816,0.30244 4.4125,0.55012 6.45401,0.55012 l 3.71183,0 0,31.90934 c 0,17.55019 -0.28626,31.89794 -0.63628,31.88398 -0.35013,-0.0131 -39.67434,-21.16101 -87.38739,-46.99335 z"
       id="path3042"
       inkscape:connector-curvature="0" />
    <path
       style="fill:#ff0000;fill-opacity:1;stroke:#000000;stroke-width:3.39867306;stroke-linejoin:round;stroke-miterlimit:4;stroke-opacity:1;stroke-dasharray:6.79734619, 3.39867307;stroke-dashoffset:0"
       d="m 220.63992,695.90485 0,-34.5108 4.24209,0 c 4.14782,0 4.2421,0.0569 4.2421,2.55273 0,2.21876 0.30537,2.55208 2.33314,2.54786 2.55506,-0.009 9.95079,-1.13886 17.06638,-2.6155 4.53932,-0.94206 4.55086,-0.95263 4.09697,-3.75807 -0.44256,-2.73508 -0.34491,-2.84435 3.5078,-3.92424 2.17969,-0.61089 4.39618,-1.24268 4.92548,-1.40388 0.52934,-0.16122 1.36425,0.86285 1.85533,2.27574 l 0.89289,2.56884 4.50786,-1.58937 c 2.47929,-0.87418 7.47866,-2.96368 11.10969,-4.6434 l 6.60183,-3.05395 -1.30791,-2.5368 c -1.25847,-2.44074 -1.22737,-2.58593 0.82179,-3.83843 1.17138,-0.71594 3.13939,-1.9212 4.37337,-2.67827 1.86797,-1.14604 2.36105,-1.18164 2.9453,-0.21257 2.29476,3.80573 2.0929,3.81572 8.12013,-0.40344 3.17927,-2.22552 7.484,-5.5441 9.56613,-7.37458 l 3.78568,-3.32812 -1.86733,-1.99354 -1.86732,-1.99349 3.6542,-3.59688 c 3.64119,-3.58408 3.6597,-3.5907 5.21261,-1.86976 0.85714,0.94993 1.83804,1.72712 2.17978,1.72712 0.76809,0 8.97826,-10.15163 12.32094,-15.2345 l 2.46427,-3.7471 -2.21257,-1.65681 -2.21259,-1.65677 2.15698,-3.95618 c 1.18637,-2.17591 2.28173,-4.11413 2.43425,-4.30717 0.15246,-0.193 1.2914,0.11241 2.53093,0.67895 1.3259,0.6059 2.56622,0.71642 3.01291,0.26838 1.25959,-1.26328 7.29894,-15.85167 7.9061,-19.09759 0.53148,-2.84139 0.41136,-3.06145 -1.95168,-3.58202 l -2.51796,-0.55466 1.27572,-5.0793 c 1.27142,-5.06209 1.28485,-5.07756 3.9795,-4.57052 l 2.70379,0.50869 1.01079,-6.65981 c 0.55594,-3.66291 1.00822,-10.39323 1.00513,-14.95625 l -0.005,-8.29646 -2.96946,0 c -2.9456,0 -2.96946,-0.0305 -2.96946,-3.75952 0,-2.06774 -0.23152,-4.36524 -0.51501,-5.10548 -0.37922,-0.99107 0.013,-1.34945 1.48475,-1.35903 4.51859,-0.0305 4.57242,-1.5658 0.58977,-16.84334 l -1.84324,-7.07083 -3.25183,0.55102 c -8.06521,1.36662 -1.80523,-2.52034 30.68504,-19.05309 l 33.93684,-17.26882 -0.002,61.12028 c -8.4e-4,33.6161 -0.25195,72.82511 -0.55785,87.13107 l -0.55633,26.01082 -16.6451,8.45131 c -9.15479,4.64827 -51.66419,26.18299 -94.4653,47.85497 l -77.82005,39.4036 0,-34.51079 z"
       id="path3044"
       inkscape:connector-curvature="0" />
    <path
       style="fill:#008000;fill-opacity:1;stroke:#000000;stroke-width:3.39867306;stroke-linejoin:round;stroke-miterlimit:4;stroke-opacity:1;stroke-dasharray:6.79734619, 3.39867307;stroke-dashoffset:0"
       d="m 340.34085,476.95769 c -0.57596,-1.28701 -2.44128,-4.51245 -4.14518,-7.16764 l -3.09803,-4.82765 -2.4029,1.4236 c -2.33449,1.38306 -2.45091,1.36302 -4.09035,-0.70336 -4.46741,-5.63076 -4.5721,-5.92749 -2.58341,-7.32456 1.00271,-0.70438 1.82314,-1.76281 1.82314,-2.35209 0,-0.58925 -3.63542,-4.64694 -8.07869,-9.0171 l -8.07863,-7.94578 -2.04499,1.92683 -2.04498,1.92678 -3.8753,-2.7912 c -2.13143,-1.53516 -3.87534,-2.93126 -3.87534,-3.10239 0,-0.17122 0.62444,-1.26689 1.38759,-2.43506 0.76313,-1.16815 1.24039,-2.25885 1.06052,-2.4238 -0.17985,-0.16512 -2.64358,-1.7926 -5.47495,-3.61701 -7.91801,-5.10208 -14.96288,-8.50842 -15.35674,-7.4253 -0.18853,0.51863 -0.81278,1.58749 -1.38715,2.37527 -0.97064,1.33137 -1.3586,1.3013 -5.50291,-0.42609 -4.60828,-1.92077 -4.63569,-1.97989 -2.97523,-6.41976 0.35968,-0.96205 -8.61594,-4.2472 -16.88102,-6.17853 -5.47937,-1.28038 -5.56904,-1.25695 -6.19943,1.62165 -0.45003,2.0551 -0.91746,2.47887 -2.40053,2.17629 -1.01295,-0.2065 -3.2734,-0.60658 -5.0233,-0.88872 -2.93314,-0.47301 -3.18157,-0.7331 -3.18157,-3.33148 l 0,-2.81842 -5.21495,-0.54668 c -2.86825,-0.30062 -8.21331,-0.54668 -11.87793,-0.54668 l -6.66291,0 0,2.97819 0,2.97819 -5.0905,0 c -4.83149,0 -5.09056,-0.10587 -5.09056,-2.07705 0,-1.14237 -0.37921,-2.31202 -0.84219,-2.59912 -0.85172,-0.52794 -13.91995,1.47966 -19.67581,3.02268 -2.94404,0.78921 -3.09909,1.00034 -2.67229,3.63819 0.43308,2.67597 0.29451,2.84792 -3.11398,3.87219 -1.96189,0.5895 -4.10496,1.27886 -4.7624,1.5319 -0.78326,0.30148 -1.51599,-0.46242 -2.12545,-2.21582 -0.76348,-2.19665 -1.2553,-2.57603 -2.7463,-2.11835 -1.92427,0.59063 -19.28902,8.65492 -19.85161,9.2192 -0.18201,0.18255 0.24108,1.44081 0.93981,2.79622 1.26686,2.45709 1.25942,2.47117 -2.5173,4.75912 -4.53283,2.74597 -5.08851,2.79695 -6.46093,0.59285 -0.58283,-0.93598 -1.37511,-1.70181 -1.76063,-1.70181 -1.05436,0 -8.22039,5.503 -17.92673,13.76643 -0.46689,0.39732 0.0435,1.56989 1.2335,2.84196 l 2.02822,2.16531 -3.50499,3.5153 -3.50498,3.51529 -2.32472,-1.52772 -2.32478,-1.52772 -2.39614,2.87846 c -5.40921,6.49788 -11.027853,15.34264 -10.546195,16.6015 0.275824,0.72061 0.16115,1.18245 -0.254555,1.02636 -0.415725,-0.15598 -14.744985,-8.4892 -31.843034,-18.51801 l -31.087357,-18.23417 2.359832,-1.43619 c 1.297868,-0.78991 42.028377,-22.96297 90.512199,-49.27346 65.89977,-35.76151 88.51993,-47.65786 89.6083,-47.12664 0.8007,0.3908 44.28057,24.63477 96.62193,53.87539 l 95.16611,53.16473 -32.4828,16.35146 c -17.86553,8.99326 -32.89874,16.37225 -33.40714,16.39774 -0.50836,0.0262 -1.39557,-1.00675 -1.97154,-2.29376 l 0,0 z"
       id="path3046"
       inkscape:connector-curvature="0" />
  </g>
</svg>
